<?xml version="1.0" encoding="utf-8"?>
<!-- Svg Vector Icons : http://www.onlinewebfonts.com/icon -->
<!DOCTYPE svg PUBLIC "-//W3C//DTD SVG 1.1//EN" "http://www.w3.org/Graphics/SVG/1.1/DTD/svg11.dtd">
<svg version="1.1" xmlns="http://www.w3.org/2000/svg" xmlns:xlink="http://www.w3.org/1999/xlink" x="0px" y="0px" viewBox="0 0 256 256" enable-background="new 0 0 256 256" xml:space="preserve">
<metadata> Svg Vector Icons : http://www.onlinewebfonts.com/icon </metadata>
<g><g><path fill="#000000" d="M35.5,230.1c-14,0-25.5-12.9-25.5-28.7V56.2c0-16.7,11.4-30.3,25.5-30.3h119.9c14.1,0,25.5,13.6,25.5,30.3v15.5c0,4.1-3.4,7.5-7.5,7.5s-7.5-3.4-7.5-7.5V56.2c0-7.1-4.7-12.9-10.5-12.9H35.5C29.7,43.3,25,49,25,56.2v143.7c0,7.1,4.7,12.9,10.5,12.9h119.9c5.8,0,10.5-5.8,10.5-12.9v-15.5c0-4.1,3.4-7.5,7.5-7.5c4.1,0,7.5,3.4,7.5,7.5v15.5c0,16.7-11.4,30.3-25.5,30.3H35.5L35.5,230.1z M197.2,182.3c-2,0-3.9-0.8-5.3-2.4c-2.9-3.1-2.9-8.1,0-11.2l28.9-31c0,0,0,0,0-0.1c0,0,0,0-0.1,0H95c-4.1,0-7.5-3.6-7.5-7.9c0-4.4,3.4-7.9,7.5-7.9h125.7c0,0,0.1,0,0.1,0c0,0,0-0.1,0-0.1l-28.9-31c-2.9-3.1-2.9-8.1,0-11.2c1.4-1.5,3.3-2.4,5.3-2.4c2,0,3.9,0.8,5.3,2.4l41.4,44.4c1.4,1.6,2.2,3.7,2.1,5.9c0.1,2.2-0.7,4.3-2.1,5.9L202.6,180C201.1,181.5,199.2,182.3,197.2,182.3L197.2,182.3z"/></g></g>
</svg>